<?xml version="1.0" encoding="UTF-8"?>
<!DOCTYPE svg PUBLIC "-//W3C//DTD SVG 1.0//EN" "http://www.w3.org/TR/2001/REC-SVG-20010904/DTD/svg10.dtd">
<!-- Creator: CorelDRAW X7 -->
<svg xmlns="http://www.w3.org/2000/svg" xml:space="preserve" width="10.161mm" height="10.161mm" version="1.0" shape-rendering="geometricPrecision" text-rendering="geometricPrecision" image-rendering="optimizeQuality" fill-rule="evenodd" clip-rule="evenodd"
viewBox="0 0 1016 1016"
 xmlns:xlink="http://www.w3.org/1999/xlink">
 <g id="Layer_x0020_1">
  <metadata id="CorelCorpID_0Corel-Layer"/>
  <rect fill="#C82B31" y="275" width="1016" height="590"/>
  <path fill="#FEFEFE" d="M303 457l410 0c14,0 25,12 25,26l0 175c0,14 -11,25 -25,25l-410 0c-14,0 -25,-11 -25,-25l0 -175c0,-14 11,-26 25,-26zm205 37c42,0 76,34 76,76 0,42 -34,76 -76,76 -42,0 -76,-34 -76,-76 0,-42 34,-76 76,-76z"/>
  <rect fill="#FEFEFE" x="382" y="419" width="251.74" height="73.67" rx="11" ry="11"/>
  <circle fill="#FEFEFE" cx="508" cy="570" r="48"/>
 </g>
</svg>
